<svg width="24" height="25" viewBox="0 0 24 25" fill="none" xmlns="http://www.w3.org/2000/svg">
<g id="DownloadSimple">
<path id="Vector" d="M21 13.6666V19.6666C21 19.8655 20.921 20.0563 20.7803 20.197C20.6397 20.3376 20.4489 20.4166 20.25 20.4166H3.75C3.55109 20.4166 3.36032 20.3376 3.21967 20.197C3.07902 20.0563 3 19.8655 3 19.6666V13.6666C3 13.4677 3.07902 13.2769 3.21967 13.1363C3.36032 12.9956 3.55109 12.9166 3.75 12.9166C3.94891 12.9166 4.13968 12.9956 4.28033 13.1363C4.42098 13.2769 4.5 13.4677 4.5 13.6666V18.9166H19.5V13.6666C19.5 13.4677 19.579 13.2769 19.7197 13.1363C19.8603 12.9956 20.0511 12.9166 20.25 12.9166C20.4489 12.9166 20.6397 12.9956 20.7803 13.1363C20.921 13.2769 21 13.4677 21 13.6666ZM11.4694 14.1973C11.539 14.267 11.6217 14.3223 11.7128 14.36C11.8038 14.3978 11.9014 14.4172 12 14.4172C12.0986 14.4172 12.1962 14.3978 12.2872 14.36C12.3783 14.3223 12.461 14.267 12.5306 14.1973L16.2806 10.4473C16.3856 10.3424 16.4572 10.2087 16.4861 10.0631C16.5151 9.91754 16.5003 9.76665 16.4435 9.62953C16.3867 9.49242 16.2904 9.37524 16.167 9.29284C16.0435 9.21043 15.8984 9.16651 15.75 9.16663H12.75V3.16663C12.75 2.96771 12.671 2.77695 12.5303 2.6363C12.3897 2.49564 12.1989 2.41663 12 2.41663C11.8011 2.41663 11.6103 2.49564 11.4697 2.6363C11.329 2.77695 11.25 2.96771 11.25 3.16663V9.16663H8.25C8.10158 9.16651 7.95646 9.21043 7.83301 9.29284C7.70957 9.37524 7.61335 9.49242 7.55653 9.62953C7.49972 9.76665 7.48487 9.91754 7.51385 10.0631C7.54284 10.2087 7.61437 10.3424 7.71937 10.4473L11.4694 14.1973Z" fill="white"/>
</g>
</svg>
